<?xml version="1.0" encoding="utf-8"?><svg xmlns="http://www.w3.org/2000/svg" xmlns:xlink="http://www.w3.org/1999/xlink"><symbol viewBox="0 0 18 20" id="icon-account" xmlns="http://www.w3.org/2000/svg"><path d="M17 19v-2a4 4 0 00-4-4H5a4 4 0 00-4 4v2M9 9a4 4 0 100-8 4 4 0 000 8z"/></symbol><symbol viewBox="0 0 24 24" id="icon-main" xmlns="http://www.w3.org/2000/svg"><path d="M3 9l9-7 9 7v11a2 2 0 01-2 2H5a2 2 0 01-2-2V9z"/><path d="M9 22V12h6v10"/></symbol><symbol viewBox="0 0 20 14" id="icon-menu" xmlns="http://www.w3.org/2000/svg"><path d="M1 7h18M1 1h18M1 13h18"/></symbol></svg>