<svg width="540" height="401" fill="none" xmlns="http://www.w3.org/2000/svg"><g filter="url(#filter0_d)"><rect x="188.454" y="17.136" width="186.359" height="327.26" rx="12" transform="rotate(3 188.454 17.136)" fill="#fff"/></g><path d="M93.01 201.713l-78.966-4.139-5.93-17.418L73.16 58.191l36.802 1.929-58.238 108.635 42.896 2.248 1.839-35.096 8.154-20.346 29.003 1.52-2.925 55.813 18.523.971-1.303 24.859-18.83 4.879-1.992 38.021-36.071-1.89 1.992-38.021zm382.1 24.787l-78.967-4.138-5.93-17.419 65.046-121.964 36.803 1.928-58.238 108.636 42.895 2.248 1.839-35.096 8.154-20.346 29.003 1.52-2.925 55.812 18.523.971-1.303 24.86-18.829 4.879-1.993 38.021-36.071-1.891 1.993-38.021z" fill="#202020"/><g filter="url(#filter1_d)"><g filter="url(#filter2_i)"><circle cx="272.439" cy="158.996" r="44.754" transform="rotate(-22 272.439 158.996)" fill="url(#paint0_linear)"/></g><path fill-rule="evenodd" clip-rule="evenodd" d="M312.932 142.285c9.13 22.597-1.787 48.317-24.384 57.447-22.597 9.13-48.317-1.788-57.447-24.385-9.13-22.597 1.788-48.316 24.385-57.446 22.597-9.13 48.316 1.787 57.446 24.384zm-4.261 73.974c27.172-17.295 39.014-52.025 26.514-82.964-14.096-34.887-53.803-51.742-88.69-37.647-34.887 14.096-51.741 53.803-37.646 88.69 12.446 30.807 44.866 47.553 76.301 41.342l9.355 27.943a3.999 3.999 0 005.291 2.439l2.075-.838 13.611 33.69-2.307.932a4 4 0 00-2.21 5.207l6.239 15.443a4 4 0 005.207 2.21l2.308-.932 15.641-6.319 2.307-.933a4 4 0 002.211-5.207l-6.24-15.443a4 4 0 00-5.207-2.21l-2.307.932-13.612-33.689 2.026-.819a4 4 0 002.091-5.474l-12.958-26.353z" fill="url(#paint1_linear)"/></g><path d="M187.826 29.12c.347-6.619 5.993-11.703 12.612-11.356l162.198 8.5c6.618.347 11.702 5.994 11.356 12.612l-.662 12.615-186.165-9.757.661-12.615z" fill="#EEE"/><circle cx="206.259" cy="30.402" r="4.399" transform="rotate(3 206.259 30.402)" fill="#34C759"/><circle cx="220.316" cy="31.139" r="4.399" transform="rotate(3 220.316 31.139)" fill="#FF9F0A"/><circle cx="234.371" cy="31.875" r="4.399" transform="rotate(3 234.371 31.875)" fill="#FF3B30"/><defs><filter id="filter0_d" x="145.326" y=".136" width="267.231" height="400.565" filterUnits="userSpaceOnUse" color-interpolation-filters="sRGB"><feFlood flood-opacity="0" result="BackgroundImageFix"/><feColorMatrix in="SourceAlpha" values="0 0 0 0 0 0 0 0 0 0 0 0 0 0 0 0 0 0 127 0"/><feOffset dx="6" dy="15"/><feGaussianBlur stdDeviation="16"/><feColorMatrix values="0 0 0 0 0 0 0 0 0 0 0 0 0 0 0 0 0 0 0.08 0"/><feBlend in2="BackgroundImageFix" result="effect1_dropShadow"/><feBlend in="SourceGraphic" in2="effect1_dropShadow" result="shape"/></filter><filter id="filter1_d" x="167.327" y="62.127" width="252.38" height="304.009" filterUnits="userSpaceOnUse" color-interpolation-filters="sRGB"><feFlood flood-opacity="0" result="BackgroundImageFix"/><feColorMatrix in="SourceAlpha" values="0 0 0 0 0 0 0 0 0 0 0 0 0 0 0 0 0 0 127 0"/><feOffset dx="4" dy="12"/><feGaussianBlur stdDeviation="10"/><feColorMatrix values="0 0 0 0 0 0 0 0 0 0 0 0 0 0 0 0 0 0 0.08 0"/><feBlend in2="BackgroundImageFix" result="effect1_dropShadow"/><feBlend in="SourceGraphic" in2="effect1_dropShadow" result="shape"/></filter><filter id="filter2_i" x="206.179" y="100.736" width="124.52" height="120.52" filterUnits="userSpaceOnUse" color-interpolation-filters="sRGB"><feFlood flood-opacity="0" result="BackgroundImageFix"/><feBlend in="SourceGraphic" in2="BackgroundImageFix" result="shape"/><feColorMatrix in="SourceAlpha" values="0 0 0 0 0 0 0 0 0 0 0 0 0 0 0 0 0 0 127 0" result="hardAlpha"/><feOffset dx="-8" dy="4"/><feGaussianBlur stdDeviation="6"/><feComposite in2="hardAlpha" operator="arithmetic" k2="-1" k3="1"/><feColorMatrix values="0 0 0 0 0 0 0 0 0 0 0 0 0 0 0 0 0 0 0.25 0"/><feBlend in2="shape" result="effect1_innerShadow"/></filter><linearGradient id="paint0_linear" x1="234.518" y1="106.043" x2="299.086" y2="205.116" gradientUnits="userSpaceOnUse"><stop stop-color="#DFDFDF"/><stop offset="1" stop-color="#E7E7E7"/></linearGradient><linearGradient id="paint1_linear" x1="309.663" y1="70.127" x2="165.356" y2="152.988" gradientUnits="userSpaceOnUse"><stop stop-color="#BE42EA"/><stop offset="1" stop-color="#7C2582"/></linearGradient></defs></svg>