<svg width="36" height="36" fill="none" xmlns="http://www.w3.org/2000/svg"><path d="M18 0C8.074 0 0 8.074 0 18s8.074 18 18 18 18-8.076 18-18S27.926 0 18 0zm0 33.212C9.613 33.212 2.789 26.388 2.789 18S9.613 2.789 18 2.789c8.388 0 15.212 6.823 15.212 15.211S26.386 33.212 18 33.212z" fill="#fff"/><path d="M26.258 11.74a1.395 1.395 0 00-1.969.095L15.784 21.2l-4.109-4.177a1.393 1.393 0 00-1.971-.017 1.393 1.393 0 00-.017 1.972l5.144 5.228c.263.268.62.417.994.417l.026.001a1.395 1.395 0 001.005-.457l9.497-10.457a1.395 1.395 0 00-.095-1.97z" fill="#fff"/></svg>