<svg width="82" height="110" fill="none" xmlns="http://www.w3.org/2000/svg"><path d="M78.227 56.293c-2.202-2.767-5.447-4.797-9.691-6.075V8.88c0-4.896-3.984-8.879-8.88-8.879H23.023c-4.896 0-8.88 3.983-8.88 8.88v35.56h-2.455c-4.896 0-8.88 3.983-8.88 8.88v.394c0 1.733.5 3.35 1.363 4.718a8.872 8.872 0 00-3.583 7.121v.395a8.873 8.873 0 003.583 7.122 8.823 8.823 0 00-1.363 4.717v.394c0 4.897 3.984 8.88 8.88 8.88h2.463c.127 3.443 2.221 6.39 5.19 7.748.276 3.109 1.21 8.935 4.371 13.478a2.954 2.954 0 002.432 1.269 2.96 2.96 0 002.427-4.651c-2.012-2.891-2.842-6.691-3.185-9.294H49.86c.081.123.162.242.242.358a2.96 2.96 0 104.868-3.367c-3.528-5.1-2.6-10.621 2.836-16.875.908-.785 3.642-3.473 3.32-7.113-.245-2.766-2.104-5.09-5.526-6.908a2.925 2.925 0 00-.314-.144c-.138-.053-3.375-1.355-2.883-4.648.298-1.994 4.371-2.449 7.034-2.27 6.854.465 11.75 2.31 14.159 5.336 1.702 2.139 2.252 4.92 1.68 8.505-.123.765-.245 1.55-.37 2.355-1.703 11.01-3.823 24.71-14.76 33.938a2.96 2.96 0 103.817 4.524C76.593 98.645 79 83.098 80.757 71.745c.123-.794.243-1.571.363-2.327.84-5.245-.134-9.661-2.892-13.125zM9.467 68.907a2.963 2.963 0 01-2.959-2.96v-.394a2.963 2.963 0 012.96-2.96h4.44v6.314h-4.44zm-.74-15.588a2.963 2.963 0 012.96-2.96h2.22v6.315h-2.22a2.963 2.963 0 01-2.96-2.96v-.395zm5.18 27.822h-2.22a2.963 2.963 0 01-2.96-2.96v-.394a2.963 2.963 0 012.96-2.96h2.22v6.314zm9.116 8.55a2.963 2.963 0 01-2.96-2.96v-2.447h27.07a16.06 16.06 0 00.216 5.407H23.023zM46.548 56.04c-.925 6.188 3.678 9.822 6.4 10.963 1.611.878 2.236 1.671 2.28 2.127.062.637-.756 1.683-1.325 2.147a2.948 2.948 0 00-.395.373c-2.068 2.349-3.547 4.594-4.568 6.715H20.063V8.88a2.963 2.963 0 012.96-2.96h36.633a2.963 2.963 0 012.96 2.96v40.13a48.657 48.657 0 00-2.779-.271c-7.447-.501-12.54 2.293-13.289 7.3z" fill="#fff"/><path d="M39.019 24.616h-7.121a1.48 1.48 0 00-1.48 1.48v7.122c0 .817.662 1.48 1.48 1.48h7.121a1.48 1.48 0 001.48-1.48v-7.122a1.48 1.48 0 00-1.48-1.48zm-1.924 17.668h-3.717v-3.57a1.48 1.48 0 00-2.96 0v5.05c0 .818.662 1.48 1.48 1.48h5.197a1.48 1.48 0 100-2.96zM50.1 24.616h-7.12a1.48 1.48 0 00-1.48 1.48v7.122c0 .817.663 1.48 1.48 1.48h7.12a1.48 1.48 0 001.48-1.48v-7.122a1.48 1.48 0 00-1.48-1.48zm-1.48 7.122h-4.16v-4.162h4.161v4.162zm.03 5.537h-4.22a1.48 1.48 0 00-1.48 1.48v4.22c0 .817.663 1.48 1.48 1.48h4.22a1.48 1.48 0 001.48-1.48v-4.22a1.48 1.48 0 00-1.48-1.48z" fill="#fff"/></svg>