<svg width="68" height="60" fill="none" xmlns="http://www.w3.org/2000/svg"><path d="M25.667 15.666v10h-10v-10h10zm5-5h-20v20h20v-20zm-5 31.667v10h-10v-10h10zm5-5h-20v20h20v-20zm21.667-21.666v10h-10v-10h10zm5-5h-20v20h20v-20zm-20 26.666h5v5h-5v-5zm5 5h5v5h-5v-5zm5-5h5v5h-5v-5zm-10 10h5v5h-5v-5zm5 5h5v5h-5v-5zm5-5h5v5h-5v-5zm5-5h5v5h-5v-5zm0 10h5v5h-5v-5zm11.666-35A3.343 3.343 0 0160.667 14V7.333H54A3.343 3.343 0 0150.667 4c0-1.833 1.5-3.333 3.333-3.333h10c1.834 0 3.334 1.5 3.334 3.333v10c0 1.833-1.5 3.333-3.334 3.333zM67.334 64V54c0-1.834-1.5-3.334-3.334-3.334A3.343 3.343 0 0060.667 54v6.666H54A3.343 3.343 0 0050.667 64c0 1.833 1.5 3.333 3.333 3.333h10c1.834 0 3.334-1.5 3.334-3.333zM4 67.333h10c1.834 0 3.334-1.5 3.334-3.333 0-1.834-1.5-3.334-3.334-3.334H7.334V54c0-1.834-1.5-3.334-3.334-3.334A3.343 3.343 0 00.667 54v10c0 1.833 1.5 3.333 3.333 3.333zM.667 4v10c0 1.833 1.5 3.333 3.333 3.333 1.834 0 3.334-1.5 3.334-3.333V7.333H14c1.834 0 3.334-1.5 3.334-3.333 0-1.833-1.5-3.333-3.334-3.333H4A3.343 3.343 0 00.667 4z" fill="#909090" fill-opacity=".42"/></svg>