<svg width="198" height="26" fill="none" xmlns="http://www.w3.org/2000/svg"><path fill-rule="evenodd" clip-rule="evenodd" d="M193.317 4.324c-.093 0-.174.02-.283.02h-.782V3.012h1.061c.28 0 .458 0 .527.02.174.03.308.09.389.2.109.105.158.26.158.438 0 .15-.045.284-.114.39a.624.624 0 01-.308.22c-.085.024-.308.044-.648.044zm1.941 2.01c-.264-.415-.458-.699-.608-.853a2.542 2.542 0 00-.571-.434c.457-.065.806-.224 1.045-.48.215-.263.328-.592.328-.966 0-.325-.069-.584-.219-.824-.154-.244-.348-.418-.603-.503-.239-.09-.661-.134-1.203-.134h-2.228v5.204h1.057V5.181h.21c.244 0 .414.024.531.04a.924.924 0 01.324.223c.106.11.28.374.543.768l.77 1.132h1.264l-.64-1.01zM193.273.86c-1.062 0-2.03.438-2.731 1.14a3.902 3.902 0 00-1.138 2.741 3.892 3.892 0 003.869 3.877 3.83 3.83 0 002.73-1.136 3.871 3.871 0 001.138-2.741 3.887 3.887 0 00-1.134-2.744A3.854 3.854 0 00193.273.86zm0-.861c-1.297 0-2.48.536-3.334 1.397a4.75 4.75 0 00-1.394 3.345 4.74 4.74 0 001.394 3.345 4.72 4.72 0 003.334 1.393A4.742 4.742 0 00198 4.742c0-1.3-.531-2.489-1.385-3.35A4.722 4.722 0 00193.273 0zm-72.625 16.362h-3.978l3.978-8.047 3.986 8.047h-3.986zM123.374 1.9h-7.093l-11.93 24.092h7.956l1.791-3.605h13.919l1.782 3.605h7.968L126.943 4.117a4.005 4.005 0 00-3.569-2.217zm47.23.016h-10.816l-9.034 8.42h-2.584v-8.42h-8.009v24.076h8.009v-9.233h3.447l9.767 9.233h11.618L158.986 12.74l11.618-10.824zm-66.488 0h8.013l-4.01 8.019-8.009 16.057h-7.134c-1.515 0-2.9-.849-3.585-2.213L78.494 1.912h7.997l8.819 17.673 8.806-17.669zm71.288 0v24.076h8.009V1.916h-8.009zm0 24.076V1.916v24.076zM67.674 1.916v24.076h8.009V1.916h-8.009zm0 24.076V1.916v24.076zM9.495 7.929h20.542c0-3.32-2.685-6.382-5.999-6.382H7.494C3.358 1.547 0 5.274 0 9.419v.037c0 4.157 3.358 7.515 7.494 7.515H20.53c.822 0 1.499.674 1.499 1.502 0 .844-.677 1.51-1.499 1.51H0A6.022 6.022 0 006.012 26h16.54c4.135 0 7.481-3.358 7.481-7.503v-.028c0-4.15-3.346-7.503-7.482-7.503H9.495c-.822 0-1.486-.686-1.486-1.51 0-.84.66-1.527 1.486-1.527zm45.776 2.018H41.242v-8.03h-8v24.075h7.996v-8.03h14.029v8.03h7.992V1.916h-7.992v8.03h.003z" fill="#E3270E"/></svg>