<svg width="151" height="27" fill="none" xmlns="http://www.w3.org/2000/svg"><path fill-rule="evenodd" clip-rule="evenodd" d="M131.621 2.766h7.381v23.808h-7.381V2.766zm-27.969 0H111v9.01l7.716-9.01h9.774l-8.641 8.976 9.043 14.832h-9.043l-5.02-9.812-3.829 3.99v5.822h-7.348V2.766zm-12.234 0h7.347V16.96c0 1.397-.231 2.729-.666 3.99a8.627 8.627 0 01-2.063 3.258c-.93.963-1.927 1.596-2.96 1.993-1.431.533-3.126.798-5.12.798-1.165 0-2.427-.103-3.791-.269-1.398-.132-2.526-.463-3.46-.963-.898-.467-1.762-1.166-2.527-2.06a7.574 7.574 0 01-1.563-2.724c-.434-1.53-.662-2.862-.662-4.023V2.766h7.348v14.53c0 1.298.335 2.332 1.067 3.06.731.731 1.728 1.095 2.993 1.095s2.262-.368 2.994-1.096c.699-.698 1.067-1.728 1.067-3.06V2.766h-.004zm-40.104 0H72.13v4.75L58.8 21.451h13.83v5.123H50.05v-4.958L63.247 7.852H51.314V2.765zm-11.607 0h7.348V16.96c0 1.397-.232 2.729-.662 3.99a8.68 8.68 0 01-2.063 3.258c-.93.963-1.927 1.596-2.96 1.993-1.431.533-3.126.798-5.124.798-1.166 0-2.427-.103-3.791-.269-1.398-.132-2.527-.463-3.453-.963-.901-.467-1.761-1.166-2.53-2.06a7.7 7.7 0 01-1.563-2.724c-.43-1.53-.662-2.862-.662-4.023V2.766h7.344v14.53c0 1.298.334 2.332 1.066 3.06.732.731 1.725 1.095 2.99 1.095 1.265 0 2.262-.368 2.994-1.096.694-.698 1.062-1.728 1.062-3.06V2.766h.004zM0 18.32l6.98-.43c.17 1.134.467 1.998.93 2.597.765.968 1.828 1.431 3.258 1.431 1.034 0 1.865-.236 2.432-.732.562-.496.83-1.062.83-1.695s-.264-1.166-.801-1.662c-.53-.5-1.795-.968-3.755-1.398-3.225-.703-5.553-1.666-6.913-2.865C1.563 12.338.893 10.808.893 8.943c0-1.195.335-2.357 1.067-3.457.699-1.1 1.766-1.93 3.192-2.563 1.43-.633 3.358-.93 5.855-.93 3.027 0 5.355.566 6.95 1.699 1.597 1.128 2.56 2.923 2.862 5.387l-6.955.401c-.165-1.062-.562-1.827-1.162-2.328-.566-.467-1.397-.731-2.427-.731-.864 0-1.497.198-1.927.566-.434.33-.665.798-.665 1.298 0 .397.198.732.533 1.03.364.33 1.166.595 2.493.864 3.192.699 5.487 1.398 6.885 2.13 1.393.699 2.427 1.563 3.06 2.63.632 1.062.93 2.224.93 3.522 0 1.53-.43 2.928-1.261 4.226-.835 1.298-2.03 2.262-3.527 2.923-1.53.666-3.428 1.001-5.756 1.001-4.023 0-6.851-.765-8.41-2.328C1.063 22.712.198 20.715 0 18.321z" fill="#2F2483"/><path clip-rule="evenodd" d="M146.097 1c1.075 0 2.047.438 2.754 1.145a3.9 3.9 0 011.146 2.758 3.89 3.89 0 01-1.146 2.754 3.882 3.882 0 01-2.754 1.145 3.89 3.89 0 01-2.749-1.149 3.89 3.89 0 01-1.15-2.75 3.89 3.89 0 011.146-2.754A3.906 3.906 0 01146.097 1z" stroke="#2F2483" stroke-width="1.417" stroke-miterlimit="22.926"/><path fill-rule="evenodd" clip-rule="evenodd" d="M144.195 7.367V2.435h2.188c.438 0 .773.045 1.004.132.228.087.41.244.55.467.137.228.203.476.203.744 0 .352-.112.645-.339.885-.228.24-.575.393-1.05.46.173.082.306.165.392.243.191.174.373.393.542.658l.86 1.343h-.823l-.653-1.025a9.441 9.441 0 00-.471-.678 1.454 1.454 0 00-.331-.33 1.047 1.047 0 00-.298-.133 1.858 1.858 0 00-.364-.025h-.756v2.191h-.654zm.654-2.757h1.405c.298 0 .534-.03.699-.091a.74.74 0 00.385-.298.802.802 0 00.132-.443.734.734 0 00-.252-.574c-.17-.15-.438-.224-.802-.224h-1.563v1.63h-.004z" fill="#2F2483"/></svg>