<svg width="207" height="28" fill="none" xmlns="http://www.w3.org/2000/svg"><path fill-rule="evenodd" clip-rule="evenodd" d="M11.588 12.642l9.167 9.099c1.504 1.52 2.785 2.552 3.844 3.094 1.064.543 2.123.853 3.186.925v.673H15.96v-.673c.71 0 1.219-.12 1.528-.358.314-.237.469-.509.469-.8 0-.29-.063-.556-.174-.788-.12-.233-.498-.669-1.141-1.303l-8.558-8.499v8.03c0 1.258.082 2.086.242 2.488.12.305.382.572.773.79a3.412 3.412 0 001.688.435h.856v.674H1.005v-.674h.88c1.03 0 1.774-.3 2.243-.895.295-.393.435-1.332.435-2.819V5.954c0-1.26-.082-2.097-.237-2.508-.13-.296-.382-.553-.759-.77A3.438 3.438 0 001.88 2.24H1v-.678h10.637v.673h-.856c-.58 0-1.141.135-1.687.416-.382.194-.648.49-.793.882-.15.387-.223 1.196-.223 2.411v7.627c.242-.237 1.078-1.012 2.505-2.334 3.621-3.317 5.811-5.535 6.57-6.649.33-.494.494-.92.494-1.288 0-.28-.131-.523-.387-.746-.257-.213-.687-.32-1.3-.32h-.562v-.672h9.134v.673a5.216 5.216 0 00-1.46.227c-.445.131-.982.393-1.61.78-.639.392-1.417 1.022-2.34 1.884-.271.242-1.514 1.496-3.729 3.753l-3.805 3.763zm25.95-9.73v9.831h5.468c1.416 0 2.36-.213 2.833-.639.638-.562.986-1.55 1.064-2.964h.672v8.669h-.672c-.17-1.216-.344-1.995-.513-2.34-.218-.425-.58-.764-1.078-1.006-.498-.243-1.267-.369-2.301-.369h-5.474v8.204c0 1.1.049 1.767.145 2.01.102.237.271.43.513.566.242.145.71.213 1.392.213h4.202c1.397 0 2.417-.102 3.05-.295.63-.194 1.243-.581 1.824-1.158.754-.755 1.527-1.903 2.32-3.428h.75l-2.142 6.227H30.454v-.673h.88a3.5 3.5 0 001.668-.426c.392-.194.663-.489.798-.881.145-.392.213-1.196.213-2.407V5.876c0-1.573-.155-2.547-.474-2.905-.445-.49-1.175-.731-2.205-.731h-.88v-.678h19.142l.26 5.477h-.71c-.256-1.322-.537-2.228-.851-2.722-.314-.494-.773-.867-1.378-1.133-.488-.18-1.349-.276-2.577-.276h-6.803v.005zm16.806-1.35h6.672L76.23 20.24V5.877c0-1.53-.174-2.49-.517-2.872-.455-.513-1.18-.77-2.166-.77h-.875v-.673H81.4v.673h-.885c-1.069 0-1.818.32-2.268.959-.27.392-.406 1.288-.406 2.683V26.84h-.662L60.832 6.806v15.322c0 1.53.17 2.49.498 2.872.469.513 1.194.77 2.17.77h.886v.673h-8.727v-.673h.875c1.073 0 1.827-.32 2.277-.959.27-.392.406-1.288.406-2.683V4.826c-.715-.843-1.267-1.4-1.634-1.671-.377-.271-.919-.518-1.634-.755-.358-.107-.895-.165-1.61-.165v-.673h.005zm64.85 0v.673c-.643 0-1.165.116-1.571.349-.402.232-.788.663-1.151 1.302-.242.426-.628 1.453-1.156 3.066L108.427 27h-.735l-5.657-15.908L96.445 27h-.666L88.425 6.366c-.551-1.55-.9-2.465-1.045-2.746-.241-.47-.575-.814-1-1.036-.421-.233-.987-.344-1.712-.344v-.678h9.167v.673h-.445c-.643 0-1.136.15-1.48.445-.343.296-.512.65-.512 1.066 0 .43.266 1.419.808 2.968l4.888 13.952 4.129-11.855-.75-2.087-.585-1.676a9.293 9.293 0 00-.856-1.627 2.53 2.53 0 00-.584-.595 3.201 3.201 0 00-.92-.475c-.231-.073-.599-.111-1.097-.111v-.678h9.646v.673h-.662c-.682 0-1.18.15-1.499.445-.319.296-.474.693-.474 1.201 0 .625.276 1.724.822 3.288l4.762 13.502 4.714-13.695c.537-1.526.808-2.581.808-3.172 0-.281-.087-.552-.261-.794a1.448 1.448 0 00-.668-.518c-.469-.17-1.068-.257-1.808-.257v-.673h7.383zM135.449 1c3.215 0 6.005 1.225 8.36 3.676 2.359 2.45 3.539 5.51 3.539 9.181 0 3.777-1.185 6.91-3.564 9.405-2.374 2.493-5.25 3.738-8.63 3.738-3.408 0-6.276-1.22-8.596-3.651-2.321-2.431-3.486-5.579-3.486-9.443 0-3.947 1.344-7.168 4.022-9.661C129.42 2.08 132.205 1 135.449 1zm-.353 1.312c-2.209 0-3.989.824-5.328 2.475-1.668 2.058-2.504 5.065-2.504 9.031 0 4.059.86 7.187 2.591 9.376 1.33 1.66 3.08 2.494 5.256 2.494 2.33 0 4.245-.916 5.763-2.732 1.518-1.825 2.272-4.697 2.272-8.624 0-4.257-.836-7.434-2.504-9.526-1.33-1.66-3.177-2.494-5.546-2.494zM164.753 1c3.216 0 6.005 1.225 8.36 3.676 2.359 2.45 3.539 5.51 3.539 9.181 0 3.777-1.184 6.91-3.563 9.405-2.374 2.493-5.251 3.738-8.631 3.738-3.408 0-6.275-1.22-8.596-3.651-2.321-2.431-3.486-5.579-3.486-9.443 0-3.947 1.344-7.168 4.023-9.661C158.729 2.08 161.514 1 164.753 1zm-.348 1.312c-2.209 0-3.988.824-5.328 2.475-1.668 2.058-2.504 5.065-2.504 9.031 0 4.059.86 7.187 2.591 9.376 1.33 1.66 3.08 2.494 5.256 2.494 2.33 0 4.245-.916 5.763-2.732 1.518-1.825 2.272-4.697 2.272-8.624 0-4.257-.836-7.434-2.504-9.526-1.33-1.66-3.181-2.494-5.546-2.494zm16.608 24.126v-.673h.929c1.049 0 1.793-.339 2.228-1.007.271-.402.402-1.308.402-2.707V5.954c0-1.55-.17-2.518-.513-2.906-.474-.537-1.18-.808-2.117-.808h-.929v-.678h10.095c3.709 0 6.532.421 8.462 1.264 1.934.842 3.49 2.251 4.665 4.222 1.18 1.971 1.765 4.247 1.765 6.824 0 3.462-1.049 6.353-3.148 8.678-2.354 2.595-5.937 3.888-10.757 3.888h-11.082zm7.079-1.825c1.547.343 2.842.513 3.892.513 2.823 0 5.163-.993 7.03-2.988 1.861-1.99 2.789-4.688 2.789-8.097 0-3.433-.928-6.14-2.789-8.116-1.867-1.98-4.26-2.969-7.18-2.969-1.093 0-2.34.175-3.742.533v21.124z" fill="#000" stroke="#000" stroke-width="1.417" stroke-miterlimit="22.926"/></svg>