<svg width="36" height="36" fill="none" xmlns="http://www.w3.org/2000/svg"><path d="M30.736 5.266c-7.02-7.021-18.444-7.021-25.463 0A17.899 17.899 0 000 18c0 4.81 1.873 9.333 5.273 12.734A17.946 17.946 0 0018.004 36a17.95 17.95 0 0012.732-5.266c7.019-7.021 7.019-18.446 0-25.468zM28.764 28.76c-5.933 5.935-15.586 5.935-21.52 0A15.122 15.122 0 012.789 18c0-4.066 1.583-7.888 4.456-10.763 5.933-5.934 15.586-5.933 21.519 0 5.931 5.934 5.931 15.59 0 21.523z" fill="#fff"/><path d="M24.015 21.856l-3.949-3.944 3.949-3.943a1.395 1.395 0 10-1.972-1.974l-3.951 3.946-3.951-3.946a1.394 1.394 0 10-1.972 1.974l3.948 3.943-3.948 3.944a1.395 1.395 0 101.972 1.974l3.95-3.947 3.952 3.947a1.394 1.394 0 101.972-1.974z" fill="#fff"/></svg>