<svg width="100" height="100" fill="none" xmlns="http://www.w3.org/2000/svg"><path d="M100 67.676c0-14.576-9.821-27.311-23.671-31.149C75.459 16.238 58.683 0 38.184 0 17.129 0 0 17.129 0 38.184a38.065 38.065 0 005.295 19.408L.14 76.226l18.635-5.154a38.041 38.041 0 0017.752 5.255C40.362 90.177 53.099 100 67.675 100c5.818 0 11.476-1.55 16.447-4.494L99.86 99.86l-4.353-15.736A32.208 32.208 0 00100 67.676zm-80.3-2.94L8.544 67.824l3.086-11.156-.703-1.1a32.216 32.216 0 01-5.068-17.383c0-17.824 14.5-32.325 32.325-32.325 17.823 0 32.324 14.5 32.324 32.325 0 17.823-14.5 32.324-32.324 32.324A32.218 32.218 0 0120.8 65.44l-1.1-.703zm71.756 26.72l-8.278-2.29-1.106.719a26.363 26.363 0 01-14.396 4.256c-11.457 0-21.523-7.408-25.09-18.03C60.129 74.09 74.089 60.13 76.112 42.586c10.621 3.568 18.029 13.634 18.029 25.09a26.363 26.363 0 01-4.256 14.397l-.72 1.106 2.29 8.278z" fill="#E3270E"/><path d="M35.254 52.93h5.86v5.86h-5.86v-5.86zm8.789-23.633a5.8 5.8 0 01-1.907 4.325l-6.882 6.299v7.15h5.86V42.5l4.978-4.556a11.752 11.752 0 003.81-8.648c0-6.462-5.256-11.719-11.718-11.719s-11.72 5.257-11.72 11.719h5.86a5.866 5.866 0 015.86-5.86 5.866 5.866 0 015.859 5.86z" fill="#E3270E"/></svg>