<svg width="36" height="36" fill="none" xmlns="http://www.w3.org/2000/svg"><path d="M35.593 19.964a1.406 1.406 0 00-1.989-.01l-3.23 3.197V18c0-4.057-1.58-7.87-4.448-10.74a15.088 15.088 0 00-10.739-4.447 15.201 15.201 0 00-7.161 1.79l-.001.002-.042.022-.02.01-.014.008a14.57 14.57 0 00-1.232.747 1.406 1.406 0 001.57 2.333 12.384 12.384 0 016.9-2.1c6.824 0 12.375 5.551 12.375 12.375v5.184l-3.236-3.16a1.406 1.406 0 10-1.965 2.014l3.636 3.55a4.22 4.22 0 002.957 1.195 4.22 4.22 0 002.979-1.216l3.65-3.614a1.406 1.406 0 00.01-1.99zm-34.077-4.21a1.405 1.405 0 00-1.488 1.319 15.535 15.535 0 00-.016 1.546 1.406 1.406 0 002.81-.113 12.75 12.75 0 01.013-1.264 1.406 1.406 0 00-1.319-1.488zm3.124 8.722c-.22-.357-.423-.73-.605-1.106a1.406 1.406 0 10-2.533 1.222c.223.463.473.92.743 1.359a1.405 1.405 0 102.395-1.475zm10.547 5.899c-.421 0-.846-.021-1.262-.064a1.406 1.406 0 00-.283 2.799c.51.051 1.03.077 1.545.077a1.406 1.406 0 100-2.812zm-6.04-1.572a12.452 12.452 0 01-1.068-.672 1.406 1.406 0 10-1.618 2.3c.42.297.862.574 1.31.826a1.406 1.406 0 101.375-2.453zM4.355 9.365a1.406 1.406 0 00-1.944.421c-.28.433-.539.886-.771 1.344a1.406 1.406 0 002.507 1.273c.19-.373.401-.74.629-1.094a1.406 1.406 0 00-.421-1.944z" fill="#fff"/></svg>