<svg width="50" height="60" fill="none" xmlns="http://www.w3.org/2000/svg"><path d="M24.622 28.902c3.966 0 7.4-1.424 10.206-4.234 2.805-2.809 4.228-6.246 4.228-10.217 0-3.97-1.422-7.408-4.228-10.218C32.02 1.424 28.587 0 24.622 0c-3.967 0-7.4 1.424-10.206 4.233-2.806 2.81-4.23 6.247-4.23 10.218 0 3.97 1.424 7.409 4.23 10.218 2.807 2.809 6.24 4.233 10.206 4.233zM16.899 6.72c2.154-2.156 4.68-3.204 7.723-3.204s5.569 1.048 7.722 3.204c2.153 2.156 3.2 4.685 3.2 7.73 0 3.047-1.047 5.576-3.2 7.732-2.153 2.156-4.68 3.204-7.722 3.204-3.043 0-5.569-1.048-7.723-3.204-2.153-2.155-3.2-4.684-3.2-7.731 0-3.046 1.047-5.575 3.2-7.731zm32.98 39.417a35.74 35.74 0 00-.486-3.791 29.912 29.912 0 00-.931-3.812 18.843 18.843 0 00-1.566-3.555c-.675-1.19-1.469-2.226-2.36-3.08-.93-.891-2.071-1.609-3.39-2.132-1.314-.52-2.77-.784-4.328-.784-.612 0-1.203.251-2.346.996-.703.46-1.526.99-2.444 1.577-.785.501-1.848.97-3.162 1.395a12.544 12.544 0 01-3.868.626c-1.284 0-2.585-.21-3.867-.626-1.313-.424-2.377-.893-3.16-1.394a356.69 356.69 0 01-2.447-1.578c-1.141-.745-1.733-.997-2.345-.997-1.558 0-3.014.265-4.327.785-1.318.523-2.459 1.24-3.391 2.133-.891.854-1.685 1.89-2.36 3.08a18.877 18.877 0 00-1.565 3.555 29.969 29.969 0 00-.93 3.81A35.49 35.49 0 00.12 46.14 51.405 51.405 0 000 49.681c0 3.132.994 5.667 2.956 7.537C4.892 59.064 7.455 60 10.572 60h28.856c3.116 0 5.679-.936 7.616-2.78C49.006 55.35 50 52.813 50 49.68c0-1.209-.041-2.401-.121-3.544zm-5.256 8.535c-1.28 1.22-2.98 1.812-5.195 1.812H10.572c-2.217 0-3.916-.593-5.195-1.812-1.255-1.196-1.865-2.829-1.865-4.99 0-1.125.037-2.235.111-3.3a32.01 32.01 0 01.439-3.415 26.43 26.43 0 01.819-3.36c.314-.982.742-1.954 1.274-2.891.507-.893 1.09-1.659 1.734-2.276.602-.577 1.361-1.05 2.256-1.404.827-.327 1.756-.507 2.765-.534.123.066.342.19.697.422a317.11 317.11 0 002.474 1.597c1.037.662 2.373 1.26 3.97 1.776 1.631.528 3.296.796 4.948.796 1.652 0 3.316-.268 4.947-.796 1.598-.517 2.933-1.114 3.972-1.777a300.25 300.25 0 002.472-1.596c.355-.23.574-.356.697-.422 1.01.027 1.939.207 2.767.534.894.355 1.653.828 2.255 1.404.643.617 1.227 1.383 1.734 2.276.532.937.96 1.91 1.274 2.89a26.36 26.36 0 01.82 3.36 32.64 32.64 0 01.439 3.416c.074 1.063.112 2.172.112 3.3 0 2.162-.61 3.794-1.865 4.99z" fill="#fff"/></svg>