<?xml version="1.0" encoding="utf-8"?><svg xmlns="http://www.w3.org/2000/svg" xmlns:xlink="http://www.w3.org/1999/xlink"><symbol viewBox="0 0 14 18" id="delete" xmlns="http://www.w3.org/2000/svg"><path d="M1 16c0 1.1.9 2 2 2h8c1.1 0 2-.9 2-2V6c0-1.1-.9-2-2-2H3c-1.1 0-2 .9-2 2v10zM13 1h-2.5L9.79.29C9.61.11 9.35 0 9.09 0H4.91c-.26 0-.52.11-.7.29L3.5 1H1c-.55 0-1 .45-1 1s.45 1 1 1h12c.55 0 1-.45 1-1s-.45-1-1-1z"/></symbol><symbol viewBox="0 0 18 20" id="icon-account" xmlns="http://www.w3.org/2000/svg"><path d="M17 19v-2a4 4 0 00-4-4H5a4 4 0 00-4 4v2M9 9a4 4 0 100-8 4 4 0 000 8z"/></symbol><symbol viewBox="0 0 24 24" id="icon-burger" xmlns="http://www.w3.org/2000/svg"><path d="M3 12h18M3 6h18M3 18h18"/></symbol><symbol viewBox="0 0 24 24" id="icon-exit" xmlns="http://www.w3.org/2000/svg"><path d="M9.453 16.787l1.88 1.88L18 12l-6.667-6.667-1.88 1.88 3.44 3.454H0v2.666h12.893l-3.44 3.454zM21.333 0H2.667C1.187 0 0 1.2 0 2.667V8h2.667V2.667h18.666v18.666H2.667V16H0v5.333A2.666 2.666 0 002.667 24h18.666C22.8 24 24 22.8 24 21.333V2.667C24 1.2 22.8 0 21.333 0z"/></symbol><symbol viewBox="0 0 24 24" id="icon-main" xmlns="http://www.w3.org/2000/svg"><path d="M3 9l9-7 9 7v11a2 2 0 01-2 2H5a2 2 0 01-2-2V9z"/><path d="M9 22V12h6v10"/></symbol><symbol viewBox="0 0 24 24" id="icon-map" xmlns="http://www.w3.org/2000/svg"><path d="M23.333 0l-.213.04L16 2.8 8 0 .48 2.533a.672.672 0 00-.48.64v20.16A.66.66 0 00.667 24l.213-.04L8 21.2l8 2.8 7.52-2.533a.672.672 0 00.48-.64V.667A.66.66 0 0023.333 0zM16 21.333L8 18.52V2.667l8 2.813v15.853z"/></symbol><symbol viewBox="0 0 24 24" id="icon-maps" xmlns="http://www.w3.org/2000/svg"><path d="M23.333 0l-.213.04L16 2.8 8 0 .48 2.533a.672.672 0 00-.48.64v20.16A.66.66 0 00.667 24l.213-.04L8 21.2l8 2.8 7.52-2.533a.672.672 0 00.48-.64V.667A.66.66 0 0023.333 0zM16 21.333L8 18.52V2.667l8 2.813v15.853z"/></symbol><symbol viewBox="0 0 20 14" id="icon-menu" xmlns="http://www.w3.org/2000/svg"><path d="M1 7h18M1 1h18M1 13h18"/></symbol><symbol viewBox="0 0 24 24" id="icon-profile" xmlns="http://www.w3.org/2000/svg"><path d="M12 0C5.376 0 0 5.376 0 12s5.376 12 12 12 12-5.376 12-12S18.624 0 12 0zm0 3.6c1.992 0 3.6 1.608 3.6 3.6s-1.608 3.6-3.6 3.6a3.595 3.595 0 01-3.6-3.6c0-1.992 1.608-3.6 3.6-3.6zm0 17.04a8.64 8.64 0 01-7.2-3.864c.036-2.388 4.8-3.696 7.2-3.696 2.388 0 7.164 1.308 7.2 3.696A8.64 8.64 0 0112 20.64z"/></symbol><symbol viewBox="0 0 24 24" id="icon-settings" xmlns="http://www.w3.org/2000/svg"><path d="M21.175 13.175c.052-.375.078-.763.078-1.175 0-.4-.026-.8-.09-1.175L23.77 8.85a.602.602 0 00.154-.762l-2.467-4.15c-.154-.276-.475-.363-.758-.276l-3.071 1.2a9.141 9.141 0 00-2.082-1.175L15.084.514A.617.617 0 0014.467 0H9.533a.604.604 0 00-.604.512l-.463 3.175c-.758.3-1.452.713-2.082 1.175l-3.071-1.2a.621.621 0 00-.758.276L.1 8.088c-.154.262-.103.587.154.762l2.61 1.975A7.143 7.143 0 002.746 12c0 .387.026.8.09 1.175L.23 15.15a.602.602 0 00-.154.762l2.467 4.15c.154.275.475.363.758.275l3.071-1.2a9.142 9.142 0 002.082 1.175l.463 3.175c.064.3.308.513.617.513h4.934a.594.594 0 00.604-.512l.463-3.175c.758-.3 1.452-.7 2.082-1.175l3.071 1.2c.283.1.604 0 .758-.276l2.468-4.15c.154-.275.09-.587-.155-.762l-2.583-1.975zM12 16.5c-2.544 0-4.626-2.025-4.626-4.5S9.456 7.5 12 7.5c2.544 0 4.626 2.025 4.626 4.5S14.544 16.5 12 16.5z"/></symbol><symbol viewBox="0 0 16 20" id="notification" xmlns="http://www.w3.org/2000/svg"><path d="M8 20c1.1 0 2-.9 2-2H6a2 2 0 002 2zm6-6V9c0-3.07-1.64-5.64-4.5-6.32V2C9.5 1.17 8.83.5 8 .5S6.5 1.17 6.5 2v.68C3.63 3.36 2 5.92 2 9v5L.71 15.29c-.63.63-.19 1.71.7 1.71h13.17c.89 0 1.34-1.08.71-1.71L14 14z"/></symbol><symbol viewBox="0 0 24 24" id="profile" xmlns="http://www.w3.org/2000/svg"><path d="M12 0C5.376 0 0 5.376 0 12s5.376 12 12 12 12-5.376 12-12S18.624 0 12 0zm0 3.6c1.992 0 3.6 1.608 3.6 3.6s-1.608 3.6-3.6 3.6a3.595 3.595 0 01-3.6-3.6c0-1.992 1.608-3.6 3.6-3.6zm0 17.04a8.64 8.64 0 01-7.2-3.864c.036-2.388 4.8-3.696 7.2-3.696 2.388 0 7.164 1.308 7.2 3.696A8.64 8.64 0 0112 20.64z"/></symbol></svg>