<svg width="764" height="526" fill="none" xmlns="http://www.w3.org/2000/svg"><g filter="url(#filter0_d)"><rect x="46.466" y="17" width="680" height="372" rx="12" transform="rotate(3 46.466 17)" fill="#fff"/></g><path d="M189.83 272.894l-90.596-4.748-6.803-19.984 74.625-139.926 42.222 2.213-66.814 124.634 49.213 2.579 2.11-40.265 9.354-23.342 33.274 1.744-3.355 64.032 21.251 1.114-1.495 28.52-21.603 5.598-2.286 43.62-41.383-2.169 2.286-43.62zm403.007 21.12l-90.596-4.748-6.803-19.983 74.625-139.926 42.222 2.213-66.814 124.634 49.212 2.579 2.111-40.265 9.354-23.342 33.274 1.743-3.355 64.033 21.251 1.113-1.495 28.521-21.603 5.597-2.286 43.62-41.383-2.169 2.286-43.62z" fill="#202020"/><g filter="url(#filter1_d)"><g filter="url(#filter2_i)"><circle cx="378.878" cy="223.459" r="65.5" transform="rotate(-22 378.878 223.459)" fill="url(#paint0_linear)"/></g><path fill-rule="evenodd" clip-rule="evenodd" d="M438.494 198.833c13.448 33.285-2.633 71.169-35.917 84.617-33.285 13.447-71.169-2.633-84.617-35.918-13.447-33.284 2.633-71.168 35.918-84.616 33.284-13.448 71.168 2.633 84.616 35.917zm-3.776 112.881c41.879-26.656 60.129-80.182 40.864-127.865-21.724-53.767-82.921-79.744-136.688-58.021-53.768 21.724-79.744 82.921-58.021 136.688 19.183 47.48 69.147 73.289 117.594 63.717l15.149 45.248a4.002 4.002 0 005.292 2.439l5.33-2.154 20.978 51.922-5.563 2.248a4.001 4.001 0 00-2.211 5.207l11.239 27.816a4 4 0 005.207 2.21l5.563-2.248 24.107-9.739 5.563-2.248a4 4 0 002.21-5.207l-11.238-27.816a4 4 0 00-5.207-2.21l-5.563 2.248-20.978-51.923 5.282-2.134a4 4 0 002.091-5.473l-21-42.705z" fill="url(#paint1_linear)"/></g><path d="M45.838 28.984c.347-6.619 5.993-11.703 12.612-11.356l655.1 34.332c6.618.347 11.702 5.994 11.355 12.612l-.837 15.978L45.001 44.962l.837-15.978z" fill="#EEE"/><circle cx="66.705" cy="32.08" r="5" transform="rotate(3 66.705 32.08)" fill="#34C759"/><circle cx="82.683" cy="32.917" r="5" transform="rotate(3 82.683 32.917)" fill="#FF9F0A"/><circle cx="98.661" cy="33.755" r="5" transform="rotate(3 98.66 33.755)" fill="#FF3B30"/><defs><filter id="filter0_d" x=".997" y="0" width="762.537" height="471.079" filterUnits="userSpaceOnUse" color-interpolation-filters="sRGB"><feFlood flood-opacity="0" result="BackgroundImageFix"/><feColorMatrix in="SourceAlpha" values="0 0 0 0 0 0 0 0 0 0 0 0 0 0 0 0 0 0 127 0"/><feOffset dx="6" dy="15"/><feGaussianBlur stdDeviation="16"/><feColorMatrix values="0 0 0 0 0 0 0 0 0 0 0 0 0 0 0 0 0 0 0.08 0"/><feBlend in2="BackgroundImageFix" result="effect1_dropShadow"/><feBlend in="SourceGraphic" in2="effect1_dropShadow" result="shape"/></filter><filter id="filter1_d" x="225.539" y="78.495" width="367.319" height="446.89" filterUnits="userSpaceOnUse" color-interpolation-filters="sRGB"><feFlood flood-opacity="0" result="BackgroundImageFix"/><feColorMatrix in="SourceAlpha" values="0 0 0 0 0 0 0 0 0 0 0 0 0 0 0 0 0 0 127 0"/><feOffset dx="4" dy="12"/><feGaussianBlur stdDeviation="10"/><feColorMatrix values="0 0 0 0 0 0 0 0 0 0 0 0 0 0 0 0 0 0 0.08 0"/><feBlend in2="BackgroundImageFix" result="effect1_dropShadow"/><feBlend in="SourceGraphic" in2="effect1_dropShadow" result="shape"/></filter><filter id="filter2_i" x="285.611" y="138.192" width="178.535" height="174.535" filterUnits="userSpaceOnUse" color-interpolation-filters="sRGB"><feFlood flood-opacity="0" result="BackgroundImageFix"/><feBlend in="SourceGraphic" in2="BackgroundImageFix" result="shape"/><feColorMatrix in="SourceAlpha" values="0 0 0 0 0 0 0 0 0 0 0 0 0 0 0 0 0 0 127 0" result="hardAlpha"/><feOffset dx="-8" dy="4"/><feGaussianBlur stdDeviation="6"/><feComposite in2="hardAlpha" operator="arithmetic" k2="-1" k3="1"/><feColorMatrix values="0 0 0 0 0 0 0 0 0 0 0 0 0 0 0 0 0 0 0.25 0"/><feBlend in2="shape" result="effect1_innerShadow"/></filter><linearGradient id="paint0_linear" x1="323.378" y1="145.959" x2="417.878" y2="290.959" gradientUnits="userSpaceOnUse"><stop stop-color="#DFDFDF"/><stop offset="1" stop-color="#E7E7E7"/></linearGradient><linearGradient id="paint1_linear" x1="436.248" y1="86.495" x2="213.842" y2="214.2" gradientUnits="userSpaceOnUse"><stop stop-color="#EA5642"/><stop offset="1" stop-color="#E3270E"/></linearGradient></defs></svg>