<svg width="100" height="124" fill="none" xmlns="http://www.w3.org/2000/svg"><path d="M98.286 42.498l-25.023-9.682a24.614 24.614 0 00-3.137-22.418 24.654 24.654 0 00-8.797-7.645 24.681 24.681 0 00-31.455 7.645 24.623 24.623 0 00-3.137 22.418L1.714 42.498A2.692 2.692 0 000 45.005v57.985a2.688 2.688 0 001.718 2.508l47.308 18.321c.31.119.641.181.974.181a2.66 2.66 0 00.96-.2l.014.019 47.312-18.321A2.689 2.689 0 00100 102.99V45.005a2.689 2.689 0 00-1.714-2.507zm-8.423 2.507l-8.734 3.381-14.474-5.564a24.774 24.774 0 004.268-5.148l18.94 7.33zM61.36 46.55l12.308 4.73-6.95 2.689-12.747-4.975a24.512 24.512 0 007.389-2.444zm8.377 12.017l9.041-3.5v11.205l-1.512-.985a2.696 2.696 0 00-3.43.409l-4.1 4.346V58.568zM50 5.448a19.29 19.29 0 0110.71 3.245 19.262 19.262 0 017.1 8.643 19.24 19.24 0 01-4.18 20.986 19.295 19.295 0 01-21.008 4.174 19.273 19.273 0 01-8.65-7.092 19.244 19.244 0 01-3.249-10.699 19.27 19.27 0 015.653-13.61A19.308 19.308 0 0150 5.446zM30.615 39.874l-3.603-1.407 2.063-.799c.473.764.987 1.502 1.54 2.21v-.004zm-11.029 1.469l39.699 15.503L50 60.442 10.137 45.005l9.45-3.661zM5.385 101.147V48.933L47.308 65.17v52.215L5.385 101.147zm47.307 16.237V65.169l11.66-4.518v16.17a2.688 2.688 0 001.7 2.499 2.693 2.693 0 002.952-.655l7.208-7.643 3.79 2.46a2.695 2.695 0 004.153-2.254V52.982l10.46-4.049v52.214l-41.923 16.237z" fill="#E3270E"/><path d="M45.205 32.62a2.694 2.694 0 003.538-.052L61.8 20.845a2.69 2.69 0 10-3.6-3.996L46.89 27.006l-5.151-4.35a2.694 2.694 0 00-4.422 2.28c.06.71.4 1.368.945 1.829l6.943 5.856z" fill="#E3270E"/></svg>