<svg width="80" height="54" fill="none" xmlns="http://www.w3.org/2000/svg"><path d="M79.076 35.817l-6.974-7.95.975-10.537c.187-1.875-1.088-3.6-2.888-4.012l-10.35-2.363-5.4-9.112C53.466.231 51.477-.444 49.753.306l-9.75 4.237L30.29.381a3.724 3.724 0 00-4.687 1.537l-5.438 9.075-10.312 2.325c-1.838.412-3.113 2.1-2.925 4.012l.975 10.5-6.975 7.987a3.764 3.764 0 000 4.95l6.975 7.95-.975 10.575c-.188 1.875 1.087 3.6 2.887 4.012l10.35 2.363 5.4 9.075a3.772 3.772 0 004.725 1.537l9.712-4.237 9.713 4.162c1.725.75 3.75.075 4.687-1.537l5.4-9.113 10.35-2.362a3.73 3.73 0 002.887-4.013l-.975-10.537 6.975-7.95c1.275-1.35 1.275-3.45.037-4.875zM43.752 57.042h-7.5v-7.5h7.5v7.5zm-3.75-15a3.76 3.76 0 01-3.75-3.75v-15a3.761 3.761 0 013.75-3.75 3.76 3.76 0 013.75 3.75v15a3.76 3.76 0 01-3.75 3.75z" fill="#909090" fill-opacity=".42"/></svg>