<svg width="60" height="60" fill="none" xmlns="http://www.w3.org/2000/svg"><path d="M30 15.658c-7.908 0-14.342 6.434-14.342 14.342S22.091 44.343 30 44.343 44.343 37.908 44.343 30 37.908 15.658 30 15.658zm0 25.1c-5.931 0-10.757-4.827-10.757-10.758 0-5.931 4.826-10.757 10.757-10.757S40.757 24.07 40.757 30 35.931 40.757 30 40.757z" fill="#fff"/><path d="M58.588 23.168l-4.611-1.002a25.099 25.099 0 00-1.484-3.579l2.553-3.971a1.793 1.793 0 00-.24-2.237L47.62 5.195a1.793 1.793 0 00-2.237-.24l-3.971 2.552a25.102 25.102 0 00-3.579-1.484l-1.002-4.611A1.793 1.793 0 0035.08 0H24.92c-.843 0-1.573.588-1.752 1.412l-1.002 4.611a25.102 25.102 0 00-3.579 1.484l-3.971-2.553a1.793 1.793 0 00-2.237.24L5.195 12.38a1.793 1.793 0 00-.24 2.237l2.552 3.971a25.102 25.102 0 00-1.484 3.579l-4.611 1.002A1.793 1.793 0 000 24.92v10.16c0 .843.588 1.572 1.412 1.752l4.611 1.002a25.102 25.102 0 001.484 3.579l-2.553 3.971a1.793 1.793 0 00.24 2.237l7.185 7.184a1.793 1.793 0 002.237.24l3.971-2.552a25.099 25.099 0 003.579 1.484l1.002 4.611A1.793 1.793 0 0024.92 60h10.16c.843 0 1.573-.588 1.752-1.412l1.002-4.611a25.099 25.099 0 003.579-1.484l3.971 2.553c.71.456 1.641.356 2.237-.24l7.184-7.185a1.793 1.793 0 00.24-2.237l-2.552-3.971a25.099 25.099 0 001.484-3.579l4.611-1.002A1.793 1.793 0 0060 35.08V24.92c0-.843-.588-1.572-1.412-1.752zm-2.174 10.467l-4.228.919a1.79 1.79 0 00-1.346 1.27 21.514 21.514 0 01-1.987 4.79 1.792 1.792 0 00.054 1.851l2.341 3.642-5.14 5.141-3.643-2.341a1.791 1.791 0 00-1.85-.053 21.527 21.527 0 01-4.79 1.986 1.794 1.794 0 00-1.271 1.346l-.92 4.228h-7.269l-.919-4.228a1.794 1.794 0 00-1.27-1.346 21.514 21.514 0 01-4.79-1.987 1.793 1.793 0 00-1.851.054l-3.642 2.341-5.14-5.14 2.34-3.643c.36-.559.38-1.271.054-1.85a21.534 21.534 0 01-1.987-4.79 1.793 1.793 0 00-1.346-1.271l-4.228-.92v-7.269l4.228-.919a1.794 1.794 0 001.346-1.27 21.515 21.515 0 011.986-4.79 1.792 1.792 0 00-.053-1.851l-2.341-3.642 5.14-5.141 3.643 2.341a1.79 1.79 0 001.85.053 21.529 21.529 0 014.79-1.986 1.794 1.794 0 001.271-1.346l.92-4.228h7.269l.919 4.228a1.79 1.79 0 001.27 1.346 21.515 21.515 0 014.79 1.986c.58.327 1.292.307 1.851-.053l3.642-2.341 5.14 5.14-2.34 3.643a1.792 1.792 0 00-.054 1.85 21.515 21.515 0 011.987 4.79c.178.64.696 1.13 1.345 1.271l4.23.92v7.269z" fill="#fff"/></svg>