<svg width="88" height="26" fill="none" xmlns="http://www.w3.org/2000/svg"><path fill-rule="evenodd" clip-rule="evenodd" d="M72.261 8.698h5.466v1.93c1.125-1.621 2.81-2.553 4.903-2.553 4.903 0 5.37 4.83 5.37 7.558v9.732h-5.464v-9.178c0-1.001-.063-3.142-1.936-3.142-1.406 0-2.873 1.242-2.873 4.108v8.212h-5.466V8.698zm-13.74 0v9.11c0 1.071.063 3.21 2.404 3.21 2.341 0 2.404-2.139 2.404-3.21v-9.11h5.464v8.973c0 1.933-.187 8.317-7.868 8.317-7.683 0-7.87-6.384-7.87-8.317V8.698h5.466zm-14.45 6.065l-5.036 5.278c-.68-.769-.998-1.898-.998-3.026 0-1.932.967-3.968 3.247-3.968 1.233 0 2.227.632 2.786 1.716zm-4.286 5.887c.419.232.917.365 1.499.365 1.935 0 3.278-1.553 3.278-4.003a5.57 5.57 0 00-.13-1.233l-4.647 4.87zm-7.278-5.425l6.82-7.146c-4.239.044-6.317 3.516-6.82 7.146zm17.08 7.17l-2.833 2.97h2.833v-2.97zm-4.165 2.97L49.589 21V10.38L35.788 24.845a6.248 6.248 0 003.625 1.141c2.215 0 3.871-1.068 4.933-2.588v1.967h1.076zM35.038 24.23l14.55-15.25v-.282h-5.244v2.035c-1.08-1.525-2.262-2.316-3.769-2.566l-8.187 8.58c-.002.09-.002.178-.002.265 0 3.22 1.042 5.692 2.652 7.218zM20.11 8.698h5.246v2.173c.155-.242.31-.449.468-.656 1.28-1.553 2.905-1.898 3.81-1.898.406 0 1.22.105 1.407.138v5.316c-.5-.243-.875-.276-1.406-.276-3.998 0-4.059 4.21-4.059 4.761v7.11H20.11V8.697zm-3.472 12.136l-4.693 4.918c2-.552 3.832-2.237 4.693-4.918zM.282 25.364l5.447-5.706c.668 1.007 1.54 1.32 2.579 1.358 1.935 0 3.278-1.553 3.278-4.002-.06-1.338-.244-1.932-.765-2.701l4.07-4.264c1.617 1.779 2.346 4.272 2.346 6.962-.01.933-.02 1.044-.145 1.95l-6.691 7.02c-.292.04.12.002-.19.002-1.498 0-2.78-.414-4.06-1.589a6.663 6.663 0 01-.905-1v1.966H.282v.004zm9.93-17.29c1.862.033 2.818.439 3.98 1.323l-4.046 4.23c-.577-.393-.943-.528-1.84-.583-2.312 0-3.279 2-3.279 3.97.03.949.122 1.227.259 1.707L0 24.268v-8.14l5.464-5.727c1.58-1.741 2.717-2.326 4.748-2.326zM0 4.09L3.905 0H0v4.09zm5.464 4.918V0h-.231L0 5.487v9.255L5.464 9.01z" fill="#000"/></svg>