<svg width="62" height="62" fill="none" xmlns="http://www.w3.org/2000/svg"><path d="M54.335 7.786C49.393 2.843 42.821.12 35.831.12c-6.99 0-13.561 2.722-18.504 7.665C12.385 12.729 9.662 19.3 9.662 26.29c0 5.339 1.59 10.433 4.543 14.744L1.414 53.76A4.798 4.798 0 000 57.173c0 1.29.502 2.501 1.414 3.413a4.815 4.815 0 003.415 1.412c1.235 0 2.47-.47 3.408-1.409l12.784-12.718c4.325 2.982 9.444 4.588 14.81 4.588 6.99 0 13.561-2.722 18.504-7.665C59.278 39.85 62 33.28 62 26.29c0-6.99-2.722-13.561-7.665-18.504zM5.672 58.018a1.197 1.197 0 01-2.04-.845c0-.32.125-.62.347-.842L16.474 43.9a26.653 26.653 0 001.688 1.692L5.672 58.018zm46.095-15.793c-8.787 8.787-23.084 8.787-31.872 0-8.787-8.787-8.787-23.084 0-31.87a22.39 22.39 0 0115.936-6.602c6.02 0 11.679 2.345 15.936 6.601 8.787 8.787 8.787 23.084 0 31.871z" fill="#E3270E"/><path d="M49.932 12.19c-7.775-7.776-20.426-7.776-28.202 0-7.775 7.774-7.775 20.425 0 28.2 3.888 3.888 8.995 5.832 14.101 5.832a19.882 19.882 0 0014.101-5.831c7.775-7.776 7.775-20.427 0-28.202zm-2.568 25.632c-6.36 6.36-16.706 6.36-23.065 0-6.36-6.359-6.36-16.705 0-23.064a16.256 16.256 0 0111.532-4.77 16.26 16.26 0 0111.533 4.77c6.358 6.359 6.358 16.705 0 23.064z" fill="#E3270E"/></svg>