<svg width="62" height="57" fill="none" xmlns="http://www.w3.org/2000/svg"><path d="M54.623 33.845a1.816 1.816 0 00-2.57 2.569l3.665 3.664c.355.355.82.532 1.284.532a1.816 1.816 0 001.284-3.1l-3.663-3.665zm-1.285-15.032c.465 0 .93-.177 1.285-.532l3.664-3.664a1.816 1.816 0 10-2.569-2.569l-3.664 3.665a1.816 1.816 0 001.284 3.1zm6.846 5.434h-5.182a1.816 1.816 0 000 3.633h5.181a1.816 1.816 0 100-3.633zM48.346.232a1.817 1.817 0 00-1.836.035l-20.802 12.74h-9.235a7.098 7.098 0 00-5.289 1.939 7.326 7.326 0 00-1.348 1.721h-4.57A5.272 5.272 0 000 21.933v8.26a5.272 5.272 0 005.266 5.266h4.561a7.918 7.918 0 003.178 3.109L6.676 49.529a1.817 1.817 0 00.685 2.493l8.014 4.496a1.816 1.816 0 002.462-.676l9.036-15.652L46.53 51.87a1.815 1.815 0 002.745-1.561V1.816c0-.657-.355-1.263-.929-1.584zM5.266 31.826c-.9 0-1.633-.732-1.633-1.633v-8.26c0-.9.732-1.633 1.633-1.633h3.59l-.001.081v11.364l.002.081H5.266zm7.222-11.445c0-1.063.432-2.08 1.186-2.79a3.5 3.5 0 012.638-.954c.037.002 8.092.003 8.092.003v19.232H16.48c-2.243-.161-3.993-1.965-3.993-4.127V20.381zm3.1 32.09l-4.846-2.718 5.81-10.063c.035-.06.065-.123.092-.185h6.43l-7.486 12.967zm30.054-5.354L28.036 36.655V15.84L45.642 5.059v42.058z" fill="#E3270E"/></svg>