<svg width="32" height="32" fill="none" xmlns="http://www.w3.org/2000/svg"><path d="M11.578 32c-4.762-.027-8.702-9.75-8.702-14.7 0-8.088 6.068-9.86 8.406-9.86 1.053 0 2.179.415 3.171.78.694.256 1.412.52 1.811.52.239 0 .802-.224 1.3-.421 1.06-.422 2.379-.947 3.915-.947h.009c1.147 0 4.625.252 6.716 3.392l.49.736-.705.532c-1.007.76-2.844 2.146-2.844 4.892 0 3.252 2.08 4.503 3.08 5.104.442.266.898.54.898 1.138 0 .391-3.12 8.785-7.65 8.785-1.11 0-1.893-.333-2.584-.627-.7-.297-1.303-.554-2.3-.554-.505 0-1.144.24-1.821.493-.925.345-1.971.737-3.159.737h-.03zM21.959 0c.118 4.255-2.925 7.207-5.964 7.021C15.494 3.626 19.034 0 21.959 0z" fill="#000"/></svg>