<svg width="32" height="32" fill="none" xmlns="http://www.w3.org/2000/svg"><path d="M7.5 16c0-1.586.437-3.07 1.196-4.342V6.263H3.3A15.879 15.879 0 000 16c0 3.567 1.16 6.956 3.301 9.736h5.395v-5.394A8.448 8.448 0 017.5 16z" fill="#FBBD00"/><path d="M16 24.5l-3.75 3.75L16 32a15.88 15.88 0 009.737-3.301V23.31h-5.389A8.5 8.5 0 0116 24.5z" fill="#0F9D58"/><path d="M8.695 20.342l-5.394 5.394c.424.55.885 1.078 1.385 1.578A15.896 15.896 0 0016 32v-7.5a8.504 8.504 0 01-7.305-4.158z" fill="#31AA52"/><path d="M32 16c0-.973-.088-1.949-.262-2.899l-.14-.768H16v7.5h7.59a8.461 8.461 0 01-3.242 3.477l5.389 5.389a16.25 16.25 0 001.577-1.385A15.896 15.896 0 0032 16z" fill="#3C79E6"/><path d="M22.01 9.99l.663.662 5.304-5.303-.663-.663A15.895 15.895 0 0016 0l-3.75 3.75L16 7.5c2.27 0 4.405.884 6.01 2.49z" fill="#CF2D48"/><path d="M16 7.5V0A15.896 15.896 0 004.687 4.686c-.5.5-.961 1.027-1.385 1.577l5.394 5.395A8.504 8.504 0 0116 7.5z" fill="#EB4132"/></svg>