<svg width="32" height="32" fill="none" xmlns="http://www.w3.org/2000/svg"><path d="M16 32c8.837 0 16-7.163 16-16S24.837 0 16 0 0 7.163 0 16s7.163 16 16 16z" fill="#4A76A8"/><path fill-rule="evenodd" clip-rule="evenodd" d="M15.396 23.017h1.256s.379-.041.573-.25c.178-.192.172-.552.172-.552s-.024-1.685.758-1.933c.77-.244 1.76 1.629 2.81 2.349.793.545 1.396.425 1.396.425l2.806-.039s1.468-.09.772-1.244c-.057-.094-.405-.854-2.086-2.414-1.76-1.633-1.524-1.369.595-4.193 1.29-1.72 1.807-2.77 1.646-3.22-.154-.428-1.103-.315-1.103-.315l-3.16.02s-.233-.033-.407.071c-.17.102-.28.34-.28.34s-.5 1.33-1.166 2.463c-1.407 2.388-1.969 2.514-2.199 2.366-.535-.346-.401-1.389-.401-2.13 0-2.314.35-3.28-.684-3.53-.343-.082-.596-.137-1.474-.146-1.127-.012-2.081.003-2.622.268-.359.176-.636.568-.467.59.208.029.681.128.932.47.324.44.312 1.43.312 1.43s.186 2.724-.434 3.063c-.426.232-1.01-.242-2.264-2.41-.643-1.11-1.128-2.336-1.128-2.336s-.093-.23-.26-.352c-.203-.149-.486-.196-.486-.196l-3.002.02s-.45.012-.616.208c-.147.174-.011.535-.011.535s2.35 5.498 5.01 8.269c2.441 2.54 5.212 2.373 5.212 2.373z" fill="#fff"/></svg>