<svg width="32" height="32" fill="none" xmlns="http://www.w3.org/2000/svg"><g clip-path="url(#clip0)" fill="#F58220"><path d="M14.425 22.54c-2.48-.259-4.717-.87-6.632-2.368-.238-.186-.483-.366-.7-.574-.838-.805-.923-1.727-.26-2.677.568-.813 1.52-1.03 2.51-.564.192.09.375.204.55.325 3.569 2.452 8.472 2.52 12.054.11.355-.272.734-.494 1.174-.607.855-.22 1.652.095 2.111.843.524.854.518 1.688-.128 2.351-.99 1.017-2.182 1.752-3.506 2.266-1.252.485-2.623.73-3.98.892.205.223.301.332.43.46 1.842 1.852 3.693 3.696 5.53 5.553.625.633.756 1.417.411 2.153-.377.805-1.22 1.334-2.047 1.277-.523-.036-.932-.297-1.295-.662-1.39-1.4-2.807-2.773-4.17-4.199-.396-.414-.587-.336-.937.024a279.486 279.486 0 01-4.25 4.268c-.642.633-1.407.747-2.151.386-.792-.384-1.296-1.192-1.257-2.004.027-.55.297-.97.674-1.346 1.824-1.82 3.642-3.646 5.462-5.47.12-.121.232-.25.407-.437z"/><path d="M15.937 16.197c-4.426-.015-8.055-3.684-8.03-8.116C7.934 3.599 11.566-.012 16.035 0c4.478.012 8.072 3.675 8.05 8.204-.023 4.423-3.677 8.009-8.147 7.993zm4.022-8.106a3.945 3.945 0 00-3.957-3.955 3.95 3.95 0 00-3.967 4.003 3.945 3.945 0 003.987 3.924 3.936 3.936 0 003.937-3.972z"/></g><defs><clipPath id="clip0"><path fill="#fff" d="M0 0h32v32H0z"/></clipPath></defs></svg>